<svg width="17" height="17" viewBox="0 0 17 17" fill="none" xmlns="http://www.w3.org/2000/svg">
<g id="people" clip-path="url(#clip0_788_735)">
<path id="Vector" d="M11.3642 8.68359C10.7217 8.68359 10.1004 8.39672 9.61416 7.87609C9.14135 7.36828 8.8526 6.69109 8.80166 5.96984C8.74729 5.20047 8.98197 4.49297 9.46229 3.97734C9.9426 3.46172 10.6142 3.18359 11.3642 3.18359C12.1088 3.18359 12.7823 3.46672 13.261 3.98109C13.7445 4.50047 13.9798 5.20672 13.9254 5.96953C13.8732 6.69172 13.5848 7.36859 13.1129 7.87578C12.6279 8.39672 12.007 8.68359 11.3642 8.68359ZM15.4838 14.1836H7.24479C7.11232 14.1843 6.98146 14.1546 6.86227 14.0968C6.74308 14.039 6.63874 13.9546 6.55729 13.8502C6.47088 13.7369 6.41121 13.6056 6.38275 13.466C6.35428 13.3265 6.35776 13.1823 6.39291 13.0442C6.65604 11.9877 7.30791 11.1114 8.27791 10.5105C9.13885 9.97734 10.2348 9.68359 11.3642 9.68359C12.5157 9.68359 13.5829 9.96484 14.4488 10.4977C15.421 11.0955 16.0738 11.9767 16.3357 13.0461C16.3705 13.1842 16.3735 13.3284 16.3448 13.4679C16.316 13.6074 16.2561 13.7386 16.1695 13.8517C16.0881 13.9557 15.984 14.0397 15.8652 14.0972C15.7463 14.1547 15.6159 14.1843 15.4838 14.1836ZM5.45791 8.80859C4.35822 8.80859 3.39135 7.78609 3.30166 6.52953C3.25729 5.88578 3.45791 5.29047 3.86416 4.85391C4.26604 4.42172 4.83291 4.18359 5.45791 4.18359C6.08291 4.18359 6.64541 4.42297 7.04947 4.85766C7.45885 5.29766 7.65885 5.89172 7.61197 6.53016C7.52229 7.78641 6.55572 8.80859 5.45791 8.80859ZM7.50979 9.79141C6.9601 9.52266 6.24666 9.38828 5.45822 9.38828C4.5376 9.38828 3.64354 9.62828 2.94041 10.0639C2.14322 10.5586 1.60697 11.2789 1.39041 12.1486C1.35872 12.2737 1.35572 12.4043 1.38164 12.5307C1.40756 12.6572 1.46173 12.7761 1.5401 12.8786C1.61446 12.9741 1.70972 13.0512 1.81856 13.1041C1.9274 13.1569 2.04691 13.1841 2.16791 13.1836H5.63666C5.69521 13.1836 5.75189 13.163 5.79684 13.1255C5.84178 13.088 5.87213 13.0359 5.8826 12.9783C5.88604 12.9586 5.89041 12.9389 5.89541 12.9195C6.16041 11.8552 6.78135 10.9558 7.69885 10.3002C7.73259 10.2758 7.75974 10.2435 7.77782 10.206C7.7959 10.1685 7.80434 10.1272 7.80239 10.0856C7.80043 10.044 7.78814 10.0036 7.76662 9.96804C7.7451 9.93244 7.71504 9.90277 7.67916 9.88172C7.6301 9.85297 7.57385 9.82266 7.50979 9.79141Z" fill="#3B72FF"/>
</g>
<defs>
<clipPath id="clip0_788_735">
<rect width="16" height="16" fill="white" transform="translate(0.864136 0.683594)"/>
</clipPath>
</defs>
</svg>
