<svg width="17" height="17" viewBox="0 0 17 17" fill="none" xmlns="http://www.w3.org/2000/svg">
<g id="star" clip-path="url(#clip0_788_730)">
<path id="Vector" d="M13.1763 15.6836C13.0711 15.684 12.9684 15.6512 12.8829 15.5898L8.8638 12.6761L4.84474 15.5898C4.75887 15.6521 4.65543 15.6855 4.54935 15.6851C4.44328 15.6847 4.34008 15.6506 4.25467 15.5877C4.16926 15.5248 4.10607 15.4364 4.07423 15.3352C4.04239 15.234 4.04355 15.1253 4.07755 15.0248L5.64505 10.382L1.58255 7.59608C1.49455 7.5358 1.42814 7.44897 1.39301 7.34825C1.35788 7.24754 1.35588 7.13824 1.38729 7.03631C1.41871 6.93438 1.4819 6.84516 1.56763 6.7817C1.65336 6.71824 1.75714 6.68386 1.8638 6.68358H6.87567L8.38817 2.02889C8.42076 1.9284 8.48433 1.84081 8.56978 1.77869C8.65523 1.71657 8.75816 1.68311 8.8638 1.68311C8.96944 1.68311 9.07237 1.71657 9.15782 1.77869C9.24327 1.84081 9.30684 1.9284 9.33942 2.02889L10.8519 6.68514H15.8638C15.9706 6.68509 16.0746 6.71924 16.1606 6.78257C16.2466 6.84591 16.31 6.93512 16.3416 7.03713C16.3732 7.13913 16.3714 7.24858 16.3363 7.34945C16.3012 7.45031 16.2347 7.53729 16.1466 7.59764L12.0825 10.382L13.6491 15.0236C13.6745 15.0987 13.6816 15.1788 13.6699 15.2573C13.6582 15.3357 13.6281 15.4103 13.5819 15.4748C13.5357 15.5392 13.4748 15.5918 13.4043 15.6281C13.3338 15.6644 13.2556 15.6834 13.1763 15.6836Z" fill="#FFA02F"/>
</g>
<defs>
<clipPath id="clip0_788_730">
<rect width="16" height="16" fill="white" transform="translate(0.864136 0.683594)"/>
</clipPath>
</defs>
</svg>
